<?xml version="1.0" encoding="UTF-8" standalone="no"?>
<!-- Created with Inkscape (http://www.inkscape.org/) -->

<svg
   xmlns:dc="http://purl.org/dc/elements/1.1/"
   xmlns:cc="http://creativecommons.org/ns#"
   xmlns:rdf="http://www.w3.org/1999/02/22-rdf-syntax-ns#"
   xmlns:svg="http://www.w3.org/2000/svg"
   xmlns="http://www.w3.org/2000/svg"
   xmlns:sodipodi="http://sodipodi.sourceforge.net/DTD/sodipodi-0.dtd"
   xmlns:inkscape="http://www.inkscape.org/namespaces/inkscape"
   width="297mm"
   height="100mm"
   viewBox="0 0 297 100"
   version="1.1"
   id="svg4652"
   inkscape:version="0.92.1 r15371"
   sodipodi:docname="logo-equatorial.svg">
  <defs
     id="defs4646" />
  <sodipodi:namedview
     id="base"
     pagecolor="#ffffff"
     bordercolor="#666666"
     borderopacity="1.0"
     inkscape:pageopacity="0.0"
     inkscape:pageshadow="2"
     inkscape:zoom="0.35"
     inkscape:cx="-127.14286"
     inkscape:cy="560"
     inkscape:document-units="mm"
     inkscape:current-layer="layer1"
     showgrid="false"
     inkscape:window-width="1920"
     inkscape:window-height="1025"
     inkscape:window-x="-8"
     inkscape:window-y="-8"
     inkscape:window-maximized="1"
     height="140mm" />
  <metadata
     id="metadata4649">
    <rdf:RDF>
      <cc:Work
         rdf:about="">
        <dc:format>image/svg+xml</dc:format>
        <dc:type
           rdf:resource="http://purl.org/dc/dcmitype/StillImage" />
        <dc:title></dc:title>
      </cc:Work>
    </rdf:RDF>
  </metadata>
  <g
     inkscape:label="Camada 1"
     inkscape:groupmode="layer"
     id="layer1"
     transform="translate(0,-197)">
    <g
       id="g5352"
       transform="translate(-0.36310803,0.64881141)">
      <g
         id="g5336">
        <g
           id="g5321">
          <g
             id="g5307">
            <g
               id="g5294">
              <g
                 id="g5282">
                <g
                   transform="matrix(0.85032089,0,0,-0.85032089,-71.580712,337.31214)"
                   id="g4643">
                  <path
                     d="m 146.2402,92.791 c 0,-3.871 -1.536,-6.681 -4.602,-8.477 -2.436,-1.428 -5.932,-2.115 -10.494,-2.115 -4.55,0 -8.048,0.738 -10.534,2.274 -2.911,1.851 -4.402,4.77 -4.402,8.797 v 9.744 c 4.079,0.687 12.823,2.063 12.823,2.063 V 92.896 c 0,-0.846 0.153,-1.54 0.524,-2.062 0.372,-0.427 0.956,-0.64 1.697,-0.64 0.743,0 1.269,0.213 1.642,0.64 0.375,0.522 0.534,1.216 0.534,2.062 v 10.486 h 12.812 z m 65.364,-9.854 h -12.763 v 1.745 c -0.686,-0.685 -1.747,-1.269 -3.178,-1.745 -1.325,-0.478 -2.914,-0.738 -4.766,-0.738 -2.703,0 -4.982,0.687 -6.732,2.115 -1.741,1.429 -2.592,3.122 -2.592,5.144 v 20.652 c 4.185,0.268 8.471,0.527 12.818,0.743 v -18.17 c 0,-1.591 0.745,-2.385 2.225,-2.385 0.738,0 1.267,0.159 1.642,0.536 0.368,0.47 0.583,1.056 0.583,1.8 v 18.478 c 4.187,0.215 8.472,0.376 12.763,0.532 z m 18.115,7.361 c 0.586,0 1.113,0.159 1.429,0.536 0.482,0.47 0.691,1.056 0.691,1.849 v 13.455 c -0.888,-0.217 -1.638,-0.463 -2.223,-0.731 -0.568,-0.252 -0.987,-0.519 -1.274,-0.807 -0.635,-0.632 -0.956,-1.433 -0.956,-2.385 v -9.532 c 0,-0.793 0.213,-1.379 0.589,-1.849 0.398,-0.356 0.944,-0.524 1.641,-0.536 z m -0.103,-7.775 c -1.171,-0.228 -2.65,-0.324 -4.504,-0.324 -3.812,0 -6.516,0.687 -8.159,2.012 -1.588,1.376 -2.38,3.439 -2.38,6.196 v 10.483 c 0,4.187 2.86,7.687 8.579,10.437 0.584,0.267 1.167,0.529 1.694,0.744 l 4.77,0.108 c 4.95,0.12 9.954,0.22 15.037,0.259 V 82.937 h -11.328 v 2.01 c -0.639,-1.164 -1.592,-1.903 -2.862,-2.227 -0.267,-0.069 -0.547,-0.138 -0.847,-0.197 m -50.319,10.268 c 0,-3.333 -1.118,-5.879 -3.231,-7.63 l 3.44,-6.412 h -10.597 l -1.855,3.501 c -0.844,-0.051 -1.684,-0.051 -2.645,-0.051 -4.605,0 -8.152,0.738 -10.697,2.274 -3.019,1.851 -4.5,4.77 -4.5,8.797 v 14.083 c 4.181,0.478 8.474,0.847 12.816,1.272 V 92.896 c 0,-0.846 0.155,-1.54 0.529,-2.062 0.369,-0.427 0.953,-0.64 1.7,-0.64 0.736,0 1.268,0.213 1.637,0.64 0.374,0.522 0.585,1.216 0.585,2.062 v 16.103 c 4.188,0.313 8.42,0.633 12.818,0.951 z m 93.643,-9.854 h -8.103 c -5.565,0 -8.951,0.736 -10.224,2.224 -1.269,1.538 -1.856,4.983 -1.856,10.384 v 16.943 l 6.676,0.06 6.147,-0.06 V 95.645 c 0,-1.528 0.526,-2.588 1.537,-3.226 0.737,-0.422 1.909,-0.636 3.438,-0.636 h 2.385 z m 48.045,28.123 V 82.937 h -12.823 v 28.657 c 4.344,-0.157 8.583,-0.32 12.823,-0.534 m -15.31,-18.269 c 0,-3.922 -1.488,-6.778 -4.446,-8.477 -2.385,-1.428 -5.829,-2.115 -10.386,-2.115 -4.609,0 -8.207,0.738 -10.7,2.274 -3.013,1.851 -4.553,4.77 -4.553,8.797 v 19.168 c 4.344,-0.048 8.635,-0.152 12.822,-0.21 V 92.896 c 0,-0.846 0.209,-1.54 0.576,-2.062 0.375,-0.427 0.897,-0.64 1.647,-0.64 0.736,0 1.325,0.213 1.694,0.64 0.366,0.522 0.53,1.216 0.53,2.062 v 19.224 c 4.337,-0.106 8.581,-0.264 12.816,-0.417 z m 48.044,-9.854 h -12.817 v 26.909 c 4.336,-0.269 8.633,-0.637 12.817,-0.955 z m 17.609,7.361 h 0.08 c 0.634,0 1.112,0.159 1.486,0.536 0.418,0.47 0.635,1.056 0.635,1.849 v 13.455 c -0.875,-0.217 -1.604,-0.463 -2.201,-0.737 -0.559,-0.249 -0.991,-0.519 -1.296,-0.801 -0.636,-0.632 -0.899,-1.433 -0.899,-2.385 v -9.532 c 0,-0.793 0.158,-1.379 0.526,-1.849 0.406,-0.367 0.97,-0.524 1.669,-0.536 m 0,-7.775 c -1.15,-0.228 -2.674,-0.324 -4.531,-0.324 -3.813,0 -6.512,0.687 -8.104,2.012 -1.587,1.376 -2.384,3.439 -2.384,6.196 v 10.483 c 0,2.811 1.223,5.248 3.761,7.418 3.831,-0.352 7.58,-0.725 11.258,-1.118 5.171,-0.553 10.183,-1.148 15.017,-1.8 V 82.937 h -11.338 v 2.01 c -0.633,-1.164 -1.585,-1.903 -2.848,-2.227 -0.264,-0.069 -0.532,-0.138 -0.831,-0.197 m 30.964,0.414 h -12.817 v 22.037 c 4.448,-0.589 8.733,-1.221 12.817,-1.909 z"
                     style="fill:#6764ad;fill-opacity:1;fill-rule:nonzero;stroke:none"
                     id="path52"
                     inkscape:connector-curvature="0" />
                  <path
                     d="m 198.8388,115.8701 v 19.344 h 12.766 v -18.689 c 1.141,0.05 2.291,0.107 3.444,0.153 v 8.311 c 0,3.871 1.538,6.678 4.717,8.483 2.347,1.298 5.647,2.029 9.843,2.106 0.251,0.005 0.5,0.013 0.749,0.013 4.55,0 7.944,-0.795 10.223,-2.334 2.696,-1.749 4.08,-4.72 4.08,-8.737 v -7.044 c 2.68,0.045 5.38,0.071 8.102,0.084 v 9.922 h -5.717 v 7.732 h 5.717 v 10.489 h 12.817 v -10.489 h 6.889 v -7.732 h -6.889 v -9.922 c 3.36,-0.019 6.696,-0.051 10.01,-0.109 v 7.069 c 0,3.913 1.536,6.828 4.551,8.632 2.562,1.613 6.038,2.411 10.494,2.431 l 0.215,0.008 c 4.176,0 7.678,-0.954 10.482,-2.815 2.914,-1.746 4.343,-4.343 4.343,-7.787 v -8.409 c 0.831,-0.034 1.662,-0.073 2.493,-0.11 v 18.744 h 12.816 v -1.742 c 0.563,0.44 1.292,0.846 2.192,1.184 0.297,0.103 0.609,0.205 0.935,0.292 1.426,0.432 3.012,0.643 4.816,0.643 2.709,0 4.874,-0.743 6.619,-2.229 1.801,-1.43 2.655,-3.177 2.655,-5.25 v -13.517 c 0.899,-0.067 1.804,-0.14 2.696,-0.217 v 20.836 h 6.413 6.409 v -22.007 c 4.216,-0.42 8.336,-0.867 12.337,-1.342 4.956,2.46 7.475,4.235 7.475,5.293 v 7.73 c 0,0.85 -0.168,1.485 -0.537,1.906 -0.372,0.418 -0.948,0.688 -1.689,0.688 -0.586,0 -1.112,-0.27 -1.539,-0.688 -0.422,-0.421 -0.633,-1.056 -0.633,-1.906 v -10.329 h -12.398 v 10.43 c 0,3.871 1.591,6.678 4.713,8.483 2.545,1.376 6.041,2.119 10.598,2.119 4.551,0 7.946,-0.795 10.216,-2.334 2.704,-1.749 4.082,-4.72 4.082,-8.737 v -15.421 c 0.209,-0.029 0.428,-0.075 0.633,-0.105 0.841,-0.129 1.672,-0.269 2.497,-0.404 v 38.863 h 12.812 v -41.21 c 13.248,-2.679 23.986,-5.71 31.57,-9.055 -17.11,4.818 -40.469,8.845 -68.119,11.806 -5.945,0.632 -12.101,1.21 -18.427,1.739 -7.79,0.639 -15.844,1.203 -24.134,1.682 -10.5,0.595 -21.377,1.054 -32.541,1.353 -10.234,0.278 -20.707,0.422 -31.362,0.422 -10.069,0 -19.974,-0.128 -29.664,-0.373 -23.277,-0.592 -45.298,-1.861 -65.356,-3.693 -3.908,-0.356 -7.741,-0.732 -11.493,-1.13 -7.508,-0.801 -14.702,-1.687 -21.537,-2.648 -18.334,-2.563 -34.111,-5.65 -46.583,-9.158 7.589,3.345 18.327,6.376 31.574,9.055 v 18.277 c 0,3.913 1.429,6.828 4.337,8.632 2.494,1.644 6.039,2.439 10.598,2.439 l 0.074,-0.008 c 4.474,-0.005 7.938,-0.747 10.412,-2.111 3.073,-1.748 4.607,-4.561 4.607,-8.483 v -13.884 c 0.986,0.123 1.973,0.248 2.97,0.369 v 13.046 c 0,3.913 1.481,6.828 4.5,8.632 2.563,1.625 6.061,2.417 10.541,2.431 l 0.158,0.008 c 4.184,0 7.679,-0.954 10.541,-2.815 2.864,-1.746 4.345,-4.343 4.345,-7.787 v -10.47 c 0.756,0.055 1.518,0.123 2.28,0.178 v 20.517 h 12.811 v -19.615 c 1.475,0.091 2.96,0.184 4.451,0.271 m 124.337,11.404 c -0.728,0 -1.293,-0.166 -1.662,-0.533 -0.373,-0.368 -0.53,-0.952 -0.53,-1.752 v -9.195 l 2.192,-0.138 2.204,-0.135 v 9.367 c 0,1.587 -0.691,2.386 -2.171,2.386 z m -32.541,-10.149 2.223,-0.061 v 7.824 c 0,0.85 -0.161,1.485 -0.529,1.906 -0.367,0.418 -0.956,0.688 -1.694,0.688 -0.589,0 -1.109,-0.27 -1.537,-0.688 -0.427,-0.421 -0.686,-1.056 -0.686,-1.906 v -7.699 z m -61.026,0.053 2.227,0.056 v 7.654 c 0,0.85 -0.21,1.485 -0.579,1.906 -0.374,0.418 -0.899,0.688 -1.648,0.688 -0.635,0 -1.164,-0.27 -1.583,-0.688 -0.426,-0.421 -0.632,-1.056 -0.632,-1.906 v -7.775 z m -65.356,-4.022 2.221,0.22 v 11.512 c 0,0.85 -0.205,1.485 -0.579,1.906 -0.371,0.418 -0.901,0.688 -1.642,0.688 -0.634,0 -1.163,-0.27 -1.592,-0.688 -0.426,-0.421 -0.633,-1.056 -0.633,-1.906 v -11.956 z m -33.03,-0.239 h 2.203 v 11.971 c 0,0.85 -0.158,1.485 -0.531,1.906 -0.373,0.418 -0.898,0.688 -1.641,0.688 h -0.031 c -0.617,-0.011 -1.144,-0.273 -1.562,-0.688 -0.425,-0.421 -0.626,-1.056 -0.626,-1.906 v -11.971 z m 216.087,25.159 h -6.411 v 9.377 h 6.411 6.409 v -9.377 z"
                     style="fill:#2d307a;fill-opacity:1;fill-rule:nonzero;stroke:none"
                     id="path56"
                     inkscape:connector-curvature="0" />
                  <path
                     d="m 311.3622,62.5469 1.29,4.125 c 0.303,0.995 0.545,2.163 0.792,3.137 h 0.05 c 0.247,-0.974 0.528,-2.121 0.844,-3.13 l 1.322,-4.132 z m 4.816,-2.304 1.517,-4.757 h 3.28 l -5.443,16.753 h -3.899 l -5.368,-16.753 h 3.154 l 1.441,4.757 z m -19.953,-4.757 h 3.055 v 16.746 h -3.055 z m -7.853,9.247 h -5.921 v -2.41 h 2.968 v -4.176 c -0.4,-0.203 -1.221,-0.347 -2.317,-0.347 -3.48,0 -5.818,2.264 -5.818,6.067 0,3.903 2.51,6.015 6.088,6.015 1.768,0 2.884,-0.323 3.805,-0.721 l 0.673,2.483 c -0.774,0.346 -2.384,0.771 -4.453,0.771 -5.542,0 -9.317,-3.409 -9.317,-8.698 -0.026,-2.533 0.844,-4.75 2.336,-6.163 1.592,-1.518 3.73,-2.24 6.568,-2.24 2.233,0 4.316,0.548 5.388,0.948 z m -29.256,5.169 c 0.297,0.083 0.922,0.151 1.888,0.151 1.99,0 3.284,-0.848 3.284,-2.684 0,-1.669 -1.294,-2.767 -3.357,-2.767 h -1.815 z m -3.028,-14.416 h 3.028 v 6.89 h 1.544 c 1.738,-0.053 2.537,-0.75 3.008,-2.937 0.475,-2.084 0.868,-3.449 1.115,-3.953 h 3.159 c -0.352,0.651 -0.797,2.587 -1.318,4.675 -0.42,1.618 -1.142,2.784 -2.336,3.232 v 0.073 c 1.56,0.572 3.032,2.037 3.032,4.196 0,1.426 -0.519,2.595 -1.444,3.357 -1.118,0.952 -2.755,1.339 -5.167,1.339 -1.77,0 -3.483,-0.144 -4.621,-0.34 z m -8.157,9.916 h -6.31 v 4.334 h 6.682 v 2.503 h -9.737 v -16.753 h 10.114 v 2.517 h -7.059 v 4.917 h 6.31 z m -28.082,-9.916 v 5.991 c 0,2.762 -0.019,4.977 -0.152,7.132 l 0.074,0.031 c 0.825,-1.893 1.944,-3.953 3.011,-5.765 l 4.377,-7.389 h 3.153 v 16.753 h -2.836 v -5.843 c 0,-2.555 0.083,-4.723 0.281,-6.957 h -0.053 c -0.77,1.813 -1.742,3.753 -2.86,5.616 l -4.322,7.184 h -3.479 v -16.753 z m -10.961,9.916 h -6.312 v 4.334 h 6.682 v 2.503 h -9.738 v -16.753 h 10.113 v 2.517 h -7.057 v 4.917 h 6.312 z"
                     style="fill:#565353;fill-opacity:1;fill-rule:nonzero;stroke:none"
                     id="path60"
                     inkscape:connector-curvature="0" />
                  <path
                     d="m 126.8945,146.3643 c -0.806,-0.3 -2.379,-0.712 -4.045,-0.712 -2.135,0 -3.765,0.543 -4.963,1.686 -1.123,1.068 -1.761,2.734 -1.761,4.644 0.019,4.008 2.847,6.555 7.024,6.555 1.554,0 2.771,-0.319 3.352,-0.599 l -0.505,-1.854 c -0.694,0.318 -1.537,0.543 -2.866,0.543 -2.697,0 -4.589,-1.592 -4.589,-4.533 0,-2.865 1.761,-4.569 4.382,-4.569 0.843,0 1.443,0.112 1.742,0.243 v 3.165 h -2.228 v 1.817 h 4.457 z"
                     style="fill:#565353;fill-opacity:1;fill-rule:nonzero;stroke:none"
                     id="path64"
                     inkscape:connector-curvature="0" />
                  <path
                     d="m 136.5761,152.6568 h 1.367 c 1.555,0 2.51,0.824 2.51,2.079 0,1.367 -0.955,2.023 -2.453,2.023 -0.731,0 -1.199,-0.057 -1.424,-0.113 z m -2.284,5.562 c 0.88,0.168 2.153,0.281 3.483,0.281 1.817,0 3.033,-0.3 3.895,-1.011 0.693,-0.581 1.087,-1.461 1.087,-2.547 0,-1.63 -1.106,-2.734 -2.304,-3.147 v -0.056 c 0.917,-0.337 1.461,-1.217 1.76,-2.435 0.412,-1.572 0.749,-3.033 0.993,-3.52 h -2.359 c -0.188,0.374 -0.506,1.405 -0.843,2.977 -0.375,1.648 -0.956,2.173 -2.267,2.211 h -1.161 v -5.188 h -2.284 z"
                     style="fill:#565353;fill-opacity:1;fill-rule:nonzero;stroke:none"
                     id="path68"
                     inkscape:connector-curvature="0" />
                  <path
                     d="m 152.2695,158.4063 v -7.36 c 0,-2.472 1.03,-3.615 2.584,-3.615 1.667,0 2.66,1.143 2.66,3.615 v 7.36 h 2.303 v -7.21 c 0,-3.895 -2.004,-5.618 -5.037,-5.618 -2.922,0 -4.814,1.629 -4.814,5.599 v 7.229 z"
                     style="fill:#565353;fill-opacity:1;fill-rule:nonzero;stroke:none"
                     id="path72"
                     inkscape:connector-curvature="0" />
                  <path
                     d="m 169.7793,152.376 c 0.3,-0.094 0.655,-0.112 1.124,-0.112 1.723,0 2.772,0.861 2.772,2.322 0,1.404 -0.974,2.135 -2.566,2.135 -0.637,0 -1.086,-0.057 -1.33,-0.113 z m -2.284,5.861 c 0.842,0.151 1.985,0.263 3.52,0.263 1.686,0 2.904,-0.356 3.708,-1.03 0.749,-0.618 1.237,-1.611 1.237,-2.791 0,-1.198 -0.375,-2.172 -1.068,-2.846 -0.936,-0.917 -2.36,-1.367 -3.989,-1.367 -0.431,0 -0.806,0.018 -1.124,0.093 v -4.776 h -2.284 z"
                     style="fill:#565353;fill-opacity:1;fill-rule:nonzero;stroke:none"
                     id="path76"
                     inkscape:connector-curvature="0" />
                  <path
                     d="m 184.7802,152.0571 c 0,-2.584 1.292,-4.625 3.502,-4.625 2.228,0 3.483,2.079 3.483,4.719 0,2.378 -1.18,4.625 -3.483,4.625 -2.285,0 -3.502,-2.115 -3.502,-4.719 m 9.42,0.169 c 0,-4.232 -2.566,-6.649 -6.03,-6.649 -3.577,0 -5.826,2.734 -5.826,6.424 0,3.895 2.455,6.63 6.012,6.63 3.671,0 5.844,-2.791 5.844,-6.405"
                     style="fill:#565353;fill-opacity:1;fill-rule:nonzero;stroke:none"
                     id="path80"
                     inkscape:connector-curvature="0" />
                </g>
              </g>
            </g>
          </g>
        </g>
      </g>
    </g>
  </g>
</svg>
